<?xml version="1.0" standalone="no"?>
<!DOCTYPE svg PUBLIC "-//W3C//DTD SVG 20010904//EN"
 "http://www.w3.org/TR/2001/REC-SVG-20010904/DTD/svg10.dtd">
<svg version="1.0" xmlns="http://www.w3.org/2000/svg"
 width="2362.000000pt" height="2362.000000pt" viewBox="0 0 2362.000000 2362.000000"
 preserveAspectRatio="xMidYMid meet">

<g transform="translate(0.000000,2362.000000) scale(0.100000,-0.100000)"
fill="#FFFFFF" stroke="none">
<path d="M7880 16464 c-1034 -61 -1818 -357 -2235 -844 -473 -553 -508 -1292
-103 -2150 180 -380 474 -813 822 -1211 48 -54 40 -41 -44 81 -640 920 -784
1775 -406 2414 340 575 1093 926 2161 1006 333 25 884 10 1285 -36 2066 -235
4439 -1244 6134 -2607 273 -220 448 -378 722 -651 425 -426 693 -757 927
-1148 581 -967 595 -1828 41 -2417 -348 -369 -906 -613 -1629 -710 -82 -11
-168 -22 -190 -24 -99 -9 326 -6 455 3 859 61 1517 277 1958 644 401 334 600
788 579 1316 -21 497 -226 1035 -619 1620 -861 1280 -2573 2595 -4565 3506
-1470 672 -2890 1067 -4278 1190 -162 14 -865 27 -1015 18z"/>
<path d="M8185 15344 c-16 -2 -86 -9 -155 -15 -325 -29 -670 -108 -950 -219
-379 -149 -702 -427 -860 -740 -57 -112 -113 -305 -135 -465 l-7 -50 45 60
c186 246 576 496 981 626 482 156 965 218 1606 206 428 -8 751 -38 1195 -113
550 -93 1170 -253 1665 -429 58 -20 130 -45 161 -55 237 -77 811 -322 1179
-503 315 -154 796 -422 967 -539 23 -15 44 -28 46 -28 9 0 290 -192 450 -307
165 -118 241 -176 357 -271 36 -30 85 -70 110 -90 25 -20 72 -61 105 -91 33
-30 80 -72 105 -94 171 -153 446 -435 564 -577 38 -47 73 -87 76 -90 3 -3 45
-57 92 -120 325 -435 503 -803 590 -1219 20 -91 23 -136 22 -316 0 -186 -3
-221 -23 -305 -50 -204 -99 -317 -210 -481 -245 -367 -683 -636 -1295 -795
l-129 -33 7 372 c3 205 15 890 26 1522 11 633 25 1191 30 1241 15 141 43 218
98 273 40 40 60 50 139 74 50 15 101 35 113 45 42 34 6 62 -98 76 -23 4 -145
2 -271 -4 -155 -7 -315 -7 -498 -1 -284 11 -427 4 -468 -23 -19 -13 -22 -21
-16 -43 7 -27 10 -28 110 -40 138 -16 198 -35 249 -79 93 -79 119 -177 132
-484 20 -505 64 -2790 53 -2801 -9 -9 -228 210 -584 586 -296 313 -536 560
-1144 1175 -525 531 -1138 1169 -1558 1621 -176 190 -189 201 -240 197 -58 -4
-69 -31 -79 -193 -4 -71 -19 -949 -33 -1950 -14 -1001 -30 -1903 -35 -2005
-21 -371 -63 -462 -230 -495 -41 -8 -92 -17 -112 -20 -51 -8 -87 -38 -72 -62
25 -42 2 -41 1159 -46 150 -1 231 14 241 45 10 34 -24 58 -101 69 -85 12 -161
34 -200 57 -90 55 -145 221 -165 503 -6 79 -24 677 -40 1329 -16 652 -32 1240
-35 1308 -3 76 -2 122 4 122 6 0 110 -109 233 -242 382 -417 379 -414 720
-773 392 -412 2414 -2427 2472 -2464 56 -35 114 -41 140 -16 9 9 20 33 25 53
6 20 14 259 19 529 5 271 11 496 15 499 4 4 71 15 149 25 1124 138 1883 601
2112 1289 61 184 71 251 71 480 0 171 -4 225 -23 325 -65 342 -225 709 -475
1085 -64 97 -235 325 -275 368 -17 18 -31 35 -31 38 -2 18 -228 262 -410 444
-296 295 -728 657 -1061 888 -394 273 -774 508 -1170 722 -127 69 -625 320
-634 320 -2 0 -42 17 -88 39 -167 77 -523 231 -535 231 -3 0 -19 7 -36 15
-131 60 -649 245 -977 348 -800 252 -1627 416 -2375 472 -177 13 -709 19 -800
9z"/>
<path d="M6992 13870 c-10 -11 -24 -38 -31 -60 -17 -58 -119 -576 -127 -646
-8 -79 8 -132 42 -140 36 -9 67 24 122 131 59 114 126 184 205 213 129 49 301
61 1055 78 l313 7 -4 -1844 c-4 -1890 -5 -1937 -43 -2124 -8 -38 -26 -95 -41
-125 -34 -67 -77 -94 -178 -111 -38 -7 -82 -18 -97 -26 -42 -21 -36 -63 12
-81 14 -5 348 -9 785 -8 717 1 762 2 789 19 60 39 8 76 -144 102 -229 39 -264
113 -290 610 -6 111 -10 895 -10 1888 l0 1697 153 0 c315 -1 763 -19 872 -35
292 -43 453 -149 480 -315 18 -113 81 -166 113 -95 17 37 21 95 32 438 8 229
8 329 0 359 l-11 41 -62 -6 c-34 -3 -98 -13 -142 -21 -186 -34 -399 -38 -1825
-33 -1627 5 -1682 7 -1862 83 -70 29 -82 30 -106 4z"/>
</g>
</svg>
